{"glyphs":{":":{"x_min":0,"x_max":269,"ha":269,"o":"m 209 389 q 209 365 192 346 q 175 327 153 327 q 135 327 123 341 q 111 354 111 374 q 111 399 128 419 q 145 439 166 439 q 186 439 197 425 q 209 412 209 389 z m 140 54 q 140 30 123 11 q 106 -8 84 -8 q 66 -8 54 6 q 42 20 42 40 q 42 65 59 85 q 75 104 97 104 q 116 104 128 90 q 140 77 140 54 z"},"$":{"x_min":0,"x_max":494,"ha":494,"o":"m 202 12 l 206 12 q 257 12 287 43 q 318 74 318 125 q 318 156 302 187 q 286 217 252 251 z m 240 369 l 289 599 q 244 599 216 568 q 189 537 189 487 q 189 455 201 427 q 212 400 240 369 z m 220 283 q 170 331 147 374 q 124 417 124 461 q 124 531 171 576 q 217 620 294 623 l 306 681 l 344 681 l 331 623 q 383 616 416 583 q 448 550 448 504 q 448 481 438 466 q 429 451 415 451 q 399 451 390 461 q 382 472 382 491 q 382 499 384 515 q 386 531 386 540 q 386 565 370 581 q 354 597 326 599 l 270 337 q 329 281 356 235 q 383 188 383 143 q 383 76 333 31 q 283 -13 206 -13 l 197 -13 l 180 -92 l 142 -92 l 160 -7 q 106 2 74 35 q 41 67 41 109 q 41 129 52 143 q 63 156 80 156 q 95 156 104 145 q 114 134 114 116 q 114 108 112 96 q 111 84 111 80 q 111 55 126 37 q 141 20 165 15 z"},"?":{"x_min":0,"x_max":382,"ha":382,"o":"m 139 54 q 139 30 122 11 q 105 -8 83 -8 q 65 -8 53 6 q 41 20 41 40 q 41 65 58 85 q 74 104 96 104 q 115 104 127 90 q 139 77 139 54 z m 105 181 q 112 229 120 264 q 128 299 137 324 q 151 361 210 400 q 216 404 219 406 q 226 411 239 419 q 321 471 321 525 q 321 560 297 582 q 272 604 234 604 q 219 604 190 596 q 160 589 145 589 q 131 589 121 599 q 110 610 110 624 q 110 648 138 665 q 167 681 211 681 q 278 681 320 635 q 361 589 361 515 q 361 447 336 406 q 311 365 241 327 q 184 296 162 265 q 140 233 129 181 z"},"<":{"x_min":0,"x_max":833,"ha":833,"o":"m 704 559 l 704 497 l 216 298 l 704 100 l 704 37 l 129 273 l 129 323 z"},"'":{"x_min":0,"x_max":170,"ha":170,"o":"m 93 422 l 77 422 l 45 645 q 44 649 44 653 q 44 657 44 664 q 44 688 54 701 q 65 714 85 714 q 105 714 116 701 q 127 688 127 665 q 127 661 125 648 q 125 646 125 645 z"},"=":{"x_min":0,"x_max":833,"ha":833,"o":"m 124 233 l 709 233 l 709 176 l 124 176 z m 124 420 l 709 420 l 709 363 l 124 363 z"},"a":{"x_min":0,"x_max":419,"ha":419,"o":"m 359 434 l 295 125 q 291 101 289 90 q 287 79 287 73 q 287 66 290 62 q 293 57 298 57 q 304 57 318 68 q 332 79 351 100 l 363 88 q 319 36 292 13 q 265 -10 248 -10 q 235 -10 227 6 q 219 22 219 47 q 219 63 228 110 q 230 123 231 129 l 210 108 q 94 -10 61 -10 q 32 -10 14 20 q -4 50 -4 99 q -4 159 19 213 q 42 267 87 313 q 144 371 211 401 q 278 431 359 434 z m 240 170 l 284 382 q 183 373 124 304 q 65 234 65 124 q 65 84 73 65 q 82 46 100 46 q 112 46 137 68 q 162 89 240 170 z"},"L":{"x_min":0,"x_max":634,"ha":634,"o":"m 175 136 l 174 133 q 168 99 168 88 q 168 59 187 46 q 205 33 247 33 l 352 33 q 418 33 469 62 q 520 91 564 154 l 584 151 l 537 0 l -28 0 l -27 23 q 24 24 48 42 q 71 60 81 104 l 177 558 q 180 570 181 579 q 182 587 182 593 q 182 619 160 631 q 139 644 95 644 l 94 667 l 372 667 l 371 644 q 319 642 297 625 q 276 609 266 563 z"},"3":{"x_min":0,"x_max":494,"ha":494,"o":"m 137 342 l 143 376 q 252 432 301 478 q 349 523 349 567 q 349 599 329 619 q 308 640 277 640 q 248 640 218 622 q 188 604 154 565 l 137 580 q 174 630 217 656 q 260 681 308 681 q 363 681 397 652 q 431 623 431 576 q 431 532 395 495 q 358 459 282 427 q 339 425 372 390 q 405 355 405 297 q 405 243 378 190 q 352 137 301 90 q 247 40 185 14 q 124 -12 57 -12 q 23 -12 4 0 q -15 13 -15 35 q -15 50 -4 60 q 6 70 22 70 q 35 70 72 51 q 109 32 135 32 q 157 32 178 41 q 199 49 218 65 q 266 106 293 162 q 320 218 320 275 q 320 320 295 346 q 271 372 228 372 q 208 372 186 365 q 164 357 137 342 z"},";":{"x_min":0,"x_max":269,"ha":269,"o":"m 186 389 q 186 365 169 346 q 152 327 130 327 q 112 327 100 341 q 88 354 88 374 q 88 399 104 419 q 121 439 143 439 q 163 439 174 425 q 186 412 186 389 z m -41 -163 q 11 -130 31 -102 q 52 -74 52 -41 q 52 -23 38 7 q 24 38 24 53 q 24 75 37 89 q 50 104 70 104 q 95 104 109 83 q 124 62 124 25 q 124 -34 87 -85 q 49 -136 -29 -182 z"},"J":{"x_min":0,"x_max":345,"ha":345,"o":"m 157 51 q 136 -44 112 -91 q 88 -138 48 -170 q 2 -207 -53 -224 q -108 -242 -178 -242 q -205 -242 -219 -232 q -234 -222 -234 -204 q -234 -187 -222 -176 q -209 -165 -189 -165 q -174 -165 -134 -177 q -94 -189 -68 -189 q -20 -189 7 -156 q 34 -124 51 -41 l 178 558 q 180 568 181 577 q 182 585 182 593 q 182 618 160 631 q 138 644 95 644 l 95 667 l 372 667 l 372 644 q 319 642 298 625 q 276 609 266 563 z"},"V":{"x_min":0,"x_max":659,"ha":659,"o":"m 113 -14 l 128 525 q 128 531 128 542 q 129 553 129 558 q 129 603 113 620 q 97 637 53 646 l 53 667 l 312 667 l 312 646 q 258 638 238 615 q 219 593 216 529 l 201 91 l 582 536 q 598 555 605 570 q 613 586 613 599 q 613 620 598 630 q 583 641 546 646 l 546 667 l 742 667 l 742 646 q 712 629 687 608 q 662 586 639 559 l 150 -14 z"},"\"":{"x_min":0,"x_max":331,"ha":331,"o":"m 253 422 l 238 422 l 206 645 q 206 646 206 648 q 204 659 204 664 q 204 688 215 701 q 226 714 246 714 q 266 714 276 701 q 287 688 287 665 q 287 658 287 654 q 287 649 286 645 z m 93 422 l 77 422 l 46 645 q 45 653 44 658 q 44 662 44 665 q 44 688 55 701 q 65 714 85 714 q 105 714 116 701 q 127 688 127 665 q 127 661 125 648 q 125 646 125 645 z"},"7":{"x_min":0,"x_max":494,"ha":494,"o":"m 56 498 l 98 667 l 483 667 l 483 640 l 180 -12 l 126 -12 l 424 593 l 162 593 q 127 593 113 583 q 100 574 92 548 l 77 498 z"},"S":{"x_min":0,"x_max":586,"ha":586,"o":"m 19 57 l 53 210 l 73 210 l 73 199 q 73 111 120 66 q 166 20 256 20 q 324 20 370 56 q 416 92 416 144 q 416 202 306 288 q 291 300 282 307 q 273 314 255 328 q 194 375 169 406 q 151 428 142 453 q 133 479 133 504 q 133 577 190 625 q 247 673 335 673 q 375 673 420 662 q 465 652 470 652 q 484 652 494 656 q 504 661 512 670 l 530 669 l 506 487 l 486 488 q 484 562 446 603 q 407 644 340 644 q 280 644 242 614 q 204 584 204 538 q 204 482 305 405 q 321 393 330 386 q 338 379 355 367 q 424 315 451 281 q 469 258 478 231 q 487 205 487 175 q 487 95 422 43 q 357 -8 253 -8 q 196 -8 139 8 q 81 24 19 57 z"},"}":{"x_min":0,"x_max":500,"ha":500,"o":"m 87 740 l 92 740 q 197 740 237 704 q 277 668 277 571 l 277 467 q 277 390 305 361 q 333 333 414 325 l 414 296 q 334 290 306 260 q 277 231 277 154 l 277 50 q 277 -47 237 -83 q 197 -119 92 -119 l 87 -119 l 87 -94 q 157 -93 182 -68 q 207 -42 207 34 l 207 104 q 207 214 237 255 q 267 295 347 310 q 267 325 237 365 q 207 406 207 516 l 207 586 q 207 662 182 688 q 156 714 87 715 z"},"Z":{"x_min":0,"x_max":713,"ha":713,"o":"m -28 0 l -28 28 l 584 641 l 324 641 q 262 641 224 611 q 185 580 141 491 l 119 491 l 164 667 l 700 667 l 700 641 l 84 28 l 381 28 q 465 28 518 64 q 571 101 618 192 l 638 192 l 586 0 z"},"x":{"x_min":0,"x_max":470,"ha":470,"o":"m 194 203 l 149 318 q 135 354 126 368 q 117 381 106 381 q 94 381 80 367 q 66 354 35 303 l 16 317 q 62 389 86 412 q 111 435 136 435 q 154 435 167 422 q 181 409 193 379 l 241 260 q 316 361 355 398 q 394 435 421 435 q 441 435 452 420 q 464 405 464 379 q 464 368 462 357 q 460 346 457 334 l 435 333 q 434 353 423 364 q 412 375 393 375 q 375 375 357 362 q 339 349 316 319 l 250 233 l 291 131 q 308 87 319 72 q 330 56 341 56 q 354 56 367 73 q 380 90 397 131 l 418 121 q 396 62 366 26 q 336 -9 309 -9 q 291 -9 277 8 q 263 25 242 79 l 205 174 q 137 85 86 38 q 35 -9 7 -9 q -8 -9 -18 4 q -28 17 -28 36 q -28 54 -7 116 l -4 126 l 16 125 q 16 97 26 82 q 36 67 54 67 q 78 67 114 102 q 149 136 194 203 z"},")":{"x_min":0,"x_max":356,"ha":356,"o":"m 162 691 q 216 592 242 499 q 268 406 268 313 q 268 186 185 42 q 102 -101 -53 -237 l -66 -219 q 62 -88 128 74 q 195 236 195 417 q 195 481 181 548 q 168 614 141 684 z"},"&":{"x_min":0,"x_max":763,"ha":763,"o":"m 588 298 q 613 278 626 255 q 639 232 639 205 q 639 173 620 137 q 602 102 569 73 q 519 27 461 6 q 404 -15 332 -15 q 262 -15 211 1 q 161 17 123 50 q 90 78 73 115 q 55 152 55 192 q 55 264 107 315 q 160 366 255 386 q 198 403 169 434 q 140 465 140 509 q 140 545 163 580 q 187 615 226 638 q 259 657 298 668 q 337 678 378 678 q 457 678 510 648 q 564 618 564 577 q 564 562 555 551 q 547 541 534 541 q 518 541 507 551 q 497 560 486 588 q 472 624 451 638 q 431 652 391 652 q 319 652 274 608 q 229 563 229 493 q 229 458 243 438 q 258 417 290 406 q 304 401 327 399 q 358 396 358 382 q 358 373 349 368 q 339 363 320 363 q 316 363 307 363 q 298 364 292 364 q 226 364 186 321 q 145 279 145 209 q 145 128 206 74 q 268 20 360 20 q 398 20 435 31 q 472 41 506 62 q 553 90 579 128 q 606 166 606 204 q 606 248 573 274 q 540 300 485 300 q 460 300 444 292 q 428 284 428 272 q 428 265 437 251 q 445 237 445 230 q 445 218 437 210 q 428 202 416 202 q 400 202 390 214 q 380 225 380 244 q 380 291 426 321 q 472 351 547 351 q 572 351 605 350 q 638 348 647 348 q 683 348 700 356 q 718 363 718 378 q 718 386 711 398 q 705 410 705 416 q 705 425 712 431 q 718 437 729 437 q 741 437 750 428 q 758 419 758 406 q 758 360 712 331 q 667 302 588 298 z"},"_":{"x_min":0,"x_max":500,"ha":500,"o":"m 0 -178 l 500 -178 l 500 -236 l 0 -236 z"},"v":{"x_min":0,"x_max":423,"ha":423,"o":"m 82 316 q 83 323 83 329 q 84 334 84 339 q 84 345 82 349 q 80 352 76 352 q 70 352 56 336 q 42 321 27 296 l 11 305 q 56 368 91 401 q 126 434 148 434 q 158 434 163 428 q 168 422 168 411 q 168 406 167 396 q 166 387 163 374 l 115 123 q 110 100 109 90 q 108 80 108 73 q 108 58 112 51 q 115 44 123 44 q 139 44 168 68 q 197 91 231 132 q 276 187 303 242 q 329 298 329 336 q 329 339 329 343 q 328 348 327 356 q 317 362 313 370 q 308 378 308 387 q 308 405 321 418 q 333 431 351 431 q 375 431 388 417 q 402 402 402 377 q 402 336 376 285 q 351 234 298 169 q 233 88 170 39 q 106 -10 71 -10 q 57 -10 48 4 q 39 19 39 43 q 39 53 40 66 q 42 78 44 93 z"},"O":{"x_min":0,"x_max":810,"ha":810,"o":"m 360 -14 q 288 -14 226 13 q 164 40 119 91 q 80 136 60 187 q 40 239 40 296 q 40 364 66 429 q 91 494 141 550 q 199 615 277 649 q 355 682 450 682 q 524 682 585 656 q 646 630 691 579 q 730 534 750 483 q 770 431 770 373 q 770 305 744 240 q 718 175 669 119 q 612 54 532 20 q 453 -14 360 -14 z m 135 267 q 135 154 197 85 q 258 16 359 16 q 429 16 492 51 q 556 86 599 149 q 635 201 655 270 q 675 338 675 407 q 675 518 613 586 q 552 654 451 654 q 381 654 318 619 q 255 584 212 522 q 176 470 156 401 q 135 333 135 267 z"},"(":{"x_min":0,"x_max":356,"ha":356,"o":"m 149 -236 q 94 -135 68 -43 q 42 49 42 141 q 42 268 125 411 q 209 554 364 691 l 377 673 q 249 542 183 380 q 116 218 116 37 q 116 -28 129 -95 q 143 -162 169 -230 z"},"C":{"x_min":0,"x_max":741,"ha":741,"o":"m 664 171 l 607 0 q 596 4 586 7 q 577 9 567 9 q 556 9 486 -3 q 417 -14 358 -14 q 299 -14 254 -2 q 208 10 171 36 q 106 81 72 146 q 37 210 37 288 q 37 362 72 434 q 107 507 171 564 q 235 622 320 652 q 404 682 504 682 q 557 682 615 672 q 673 662 736 641 l 697 472 l 676 473 q 677 479 677 484 q 677 490 677 501 q 677 575 633 615 q 590 655 509 655 q 430 655 357 622 q 284 588 229 527 q 182 474 160 412 q 137 349 137 273 q 137 153 200 83 q 264 12 370 12 q 445 12 513 52 q 581 92 644 173 z"},"W":{"x_min":0,"x_max":921,"ha":921,"o":"m 682 667 l 682 646 q 620 643 597 618 q 575 593 573 514 l 563 92 l 848 520 q 866 546 874 566 q 882 585 882 600 q 882 620 863 632 q 844 644 810 646 l 810 667 l 1020 667 l 1020 646 q 983 631 953 603 q 923 576 886 519 l 537 -14 l 482 -14 l 494 495 l 138 -14 l 85 -14 l 120 534 q 120 536 120 540 q 122 570 122 581 q 122 617 106 630 q 89 643 44 646 l 44 667 l 300 667 l 300 646 q 246 641 227 619 q 207 598 202 531 l 172 93 l 497 554 q 498 557 498 561 q 498 564 498 571 q 498 608 478 626 q 458 644 413 646 l 413 667 z"},"A":{"x_min":0,"x_max":650,"ha":650,"o":"m 225 334 l 434 334 l 425 608 z m -100 0 l -99 21 q -62 25 -34 44 q -6 63 40 127 l 445 681 l 506 681 l 526 115 q 528 63 546 44 q 565 25 617 21 l 617 0 l 334 0 l 334 21 q 396 22 419 40 q 442 59 442 108 l 442 116 l 436 289 l 193 289 l 61 109 q 52 96 48 85 q 44 74 44 63 q 44 45 60 37 q 75 28 135 21 l 135 0 z"},"f":{"x_min":0,"x_max":227,"ha":227,"o":"m 86 385 l 14 385 l 18 407 l 96 421 q 122 564 182 640 q 242 715 330 715 q 361 715 382 702 q 402 689 402 669 q 402 655 393 646 q 383 637 369 637 q 356 637 324 655 q 292 673 272 673 q 231 673 205 616 q 180 559 160 421 l 247 421 l 238 385 l 153 385 l 110 127 q 80 -57 11 -150 q -57 -243 -162 -243 q -197 -243 -218 -230 q -239 -217 -239 -197 q -239 -185 -229 -176 q -219 -167 -205 -167 q -188 -167 -155 -185 q -122 -203 -102 -203 q -53 -203 -20 -138 q 13 -73 37 77 z"},"Q":{"x_min":0,"x_max":810,"ha":810,"o":"m 431 -10 q 499 -70 564 -104 q 630 -138 676 -138 q 689 -138 707 -136 q 726 -133 753 -128 l 758 -146 q 730 -166 696 -176 q 662 -186 620 -186 q 577 -186 533 -170 q 489 -155 440 -122 q 395 -92 339 -52 q 283 -12 273 -7 q 269 -5 256 0 q 180 34 129 83 q 85 125 63 180 q 40 234 40 296 q 40 364 66 429 q 92 494 141 550 q 199 615 277 649 q 355 682 450 682 q 524 682 585 656 q 646 630 691 579 q 730 534 750 483 q 770 431 770 373 q 770 306 745 242 q 720 178 672 122 q 630 73 571 40 q 512 8 431 -10 z m 135 267 q 135 154 197 85 q 258 16 359 16 q 429 16 492 51 q 556 86 599 149 q 635 201 655 270 q 675 338 675 407 q 675 518 613 586 q 552 654 451 654 q 381 654 318 619 q 255 584 212 522 q 176 470 156 401 q 135 333 135 267 z"},"w":{"x_min":0,"x_max":680,"ha":680,"o":"m 129 114 q 126 97 125 88 q 124 80 124 75 q 124 62 130 54 q 136 45 144 45 q 161 45 207 97 q 253 149 326 251 l 360 421 l 430 421 l 370 121 q 366 100 364 88 q 362 76 362 69 q 362 56 366 51 q 370 45 379 45 q 394 45 422 67 q 451 89 484 127 q 530 179 557 237 q 584 294 584 335 q 584 338 583 345 q 582 352 581 354 q 572 360 568 368 q 563 376 563 385 q 563 404 577 419 q 591 433 610 433 q 630 433 644 418 q 657 403 657 379 q 657 340 634 292 q 610 244 562 183 q 492 94 427 42 q 361 -10 322 -10 q 308 -10 299 6 q 290 21 290 45 q 290 58 291 70 q 292 83 295 95 l 315 200 q 219 81 170 35 q 122 -10 92 -10 q 74 -10 64 7 q 54 23 54 53 q 54 63 56 79 q 58 95 64 130 l 97 313 q 100 332 102 344 q 103 356 103 361 q 103 370 100 375 q 98 381 93 381 q 81 381 60 359 q 38 337 6 293 l -9 304 q 40 371 73 400 q 106 428 136 428 q 155 428 165 417 q 174 406 174 384 q 174 376 173 366 q 172 355 169 339 z"},"-":{"x_min":0,"x_max":389,"ha":389,"o":"m 11 177 l 25 242 l 329 242 l 316 177 z"},"E":{"x_min":0,"x_max":644,"ha":644,"o":"m -28 0 l -27 23 q 24 24 48 42 q 71 60 81 104 l 177 558 q 180 570 181 579 q 182 587 182 593 q 182 619 160 631 q 139 644 95 644 l 94 667 l 637 667 l 610 519 l 589 522 l 589 534 q 589 590 559 615 q 529 639 461 639 l 281 639 l 221 356 l 406 356 q 467 356 491 372 q 515 387 534 427 l 555 425 l 517 239 l 495 239 l 495 252 q 495 295 474 311 q 453 327 383 327 l 215 327 l 175 136 l 174 133 q 168 99 168 88 q 168 59 187 46 q 205 33 247 33 l 352 33 q 418 33 469 62 q 520 91 564 154 l 584 151 l 537 0 z"},"s":{"x_min":0,"x_max":296,"ha":296,"o":"m -35 37 q -35 52 -25 62 q -16 72 0 72 q 19 72 58 49 q 96 26 119 26 q 141 26 155 42 q 169 59 169 84 q 169 115 119 179 l 112 187 q 78 231 67 255 q 56 278 56 300 q 56 347 102 390 q 147 433 198 433 q 232 433 251 418 q 270 404 270 378 q 270 362 260 351 q 250 340 236 340 q 228 340 221 344 q 215 349 206 361 q 203 365 198 373 q 182 400 161 400 q 142 400 124 379 q 106 358 106 334 q 106 322 111 310 q 116 297 124 286 q 134 273 155 250 q 219 175 219 128 q 219 64 175 28 q 131 -9 54 -9 q 11 -9 -12 3 q -35 15 -35 37 z"},">":{"x_min":0,"x_max":833,"ha":833,"o":"m 129 559 l 704 323 l 704 273 l 129 37 l 129 100 l 617 298 l 129 497 z"},"l":{"x_min":0,"x_max":236,"ha":236,"o":"m 94 108 q 93 102 91 91 q 85 61 85 53 q 85 49 89 44 q 92 40 96 40 q 108 40 129 62 q 151 83 183 128 l 194 117 q 145 49 112 21 q 80 -7 50 -7 q 31 -7 21 4 q 12 15 12 37 q 12 44 14 56 q 15 67 18 82 l 122 598 q 123 601 124 608 q 127 621 127 628 q 127 630 125 632 q 124 633 120 633 q 112 633 98 618 q 84 603 68 577 l 53 586 q 98 649 133 683 q 168 716 190 716 q 200 716 204 710 q 209 704 209 692 q 209 687 208 677 q 207 667 204 655 z"},"8":{"x_min":0,"x_max":494,"ha":494,"o":"m 238 325 q 174 282 141 229 q 107 177 107 121 q 107 71 135 42 q 162 12 208 12 q 262 12 299 53 q 337 93 337 152 q 337 189 313 231 q 290 272 238 325 z m 285 389 q 348 433 378 476 q 408 518 408 564 q 408 607 383 631 q 358 655 315 655 q 266 655 231 621 q 196 587 196 539 q 196 508 215 475 q 234 442 285 389 z m 214 344 q 167 397 147 436 q 127 474 127 511 q 127 583 182 631 q 236 679 319 679 q 390 679 434 644 q 479 609 479 554 q 479 505 443 465 q 407 426 303 369 q 361 311 386 264 q 411 218 411 170 q 411 91 354 39 q 297 -13 211 -13 q 133 -13 83 30 q 34 72 34 138 q 34 195 75 243 q 116 291 214 344 z"},"\\":{"x_min":0,"x_max":278,"ha":278,"o":"m 49 681 l 96 681 l 243 -93 l 196 -93 z"},"e":{"x_min":0,"x_max":341,"ha":341,"o":"m 277 65 q 214 21 176 2 q 138 -16 111 -16 q 63 -16 32 25 q 0 67 0 131 q 0 189 21 248 q 42 306 78 348 q 112 389 154 411 q 196 434 236 434 q 274 434 296 415 q 319 396 319 365 q 319 316 259 273 q 199 229 81 194 q 77 172 74 155 q 72 137 72 124 q 72 80 93 53 q 114 27 148 27 q 179 27 262 78 l 268 82 z m 87 218 q 171 241 214 279 q 257 316 257 367 q 257 387 246 398 q 235 410 217 410 q 175 410 143 363 q 111 315 87 218 z"},"b":{"x_min":0,"x_max":435,"ha":435,"o":"m 116 234 l 94 130 q 91 118 89 106 q 88 95 88 86 q 88 53 104 35 q 121 16 149 16 q 208 16 257 94 q 305 172 305 279 q 305 321 293 348 q 281 375 263 375 q 248 375 216 345 q 185 315 116 234 z m 117 598 q 119 607 120 614 q 121 620 121 623 q 121 627 119 630 q 116 633 112 633 q 105 633 91 621 q 78 609 57 586 l 43 597 q 54 608 73 627 q 159 716 184 716 q 193 716 199 710 q 204 704 204 692 q 204 687 203 677 q 201 667 199 655 l 125 274 q 188 348 239 390 q 290 432 313 432 q 338 432 360 387 q 382 341 382 280 q 382 236 366 190 q 350 144 320 102 q 280 45 231 17 q 182 -11 123 -11 q 76 -11 47 16 q 18 43 18 87 q 18 102 21 121 q 23 140 28 163 z"},"%":{"x_min":0,"x_max":778,"ha":778,"o":"m 161 -15 l 563 681 l 613 681 l 211 -15 z m 477 117 q 477 73 497 46 q 517 20 550 20 q 594 20 627 75 q 659 129 659 207 q 659 249 641 272 q 623 295 591 295 q 544 295 511 243 q 477 191 477 117 z m 549 -8 q 486 -8 445 33 q 405 75 405 139 q 405 215 458 268 q 511 321 588 321 q 652 321 690 282 q 729 243 729 178 q 729 103 675 47 q 622 -8 549 -8 z m 121 470 q 121 426 141 399 q 161 373 193 373 q 237 373 270 428 q 303 482 303 560 q 303 602 285 625 q 267 648 234 648 q 188 648 154 596 q 121 545 121 470 z m 194 345 q 131 345 90 386 q 50 428 50 492 q 50 568 103 621 q 155 674 232 674 q 296 674 334 635 q 373 596 373 531 q 373 456 320 400 q 266 345 194 345 z"},"m":{"x_min":0,"x_max":722,"ha":722,"o":"m 24 -9 l 88 319 q 89 323 90 329 q 92 339 92 342 q 92 348 89 351 q 87 354 83 354 q 77 354 64 339 q 51 323 36 298 l 21 307 q 63 369 97 402 q 131 436 152 436 q 162 436 167 430 q 172 424 172 412 q 172 406 171 397 q 169 388 167 376 l 136 221 q 220 334 275 385 q 330 436 366 436 q 384 436 395 420 q 406 404 406 378 q 406 363 403 343 q 399 322 392 291 l 376 221 q 461 335 515 385 q 569 436 605 436 q 623 436 635 420 q 646 404 646 378 q 646 363 642 343 q 639 323 630 291 l 582 108 q 577 90 574 76 q 572 62 572 53 q 572 48 575 44 q 578 41 583 41 q 594 41 615 63 q 636 85 665 128 l 679 117 q 628 45 598 18 q 567 -9 540 -9 q 522 -9 513 3 q 504 14 504 37 q 504 49 505 61 q 506 72 509 82 l 567 320 q 571 337 573 348 q 575 360 575 366 q 575 376 571 382 q 566 387 558 387 q 539 387 487 328 q 434 269 366 170 l 331 -9 l 264 -9 l 328 320 q 329 326 332 337 q 336 359 336 366 q 336 376 331 382 q 326 387 318 387 q 299 387 247 328 q 194 269 126 170 l 91 -9 z"},"#":{"x_min":0,"x_max":769,"ha":769,"o":"m 342 424 l 293 284 l 434 284 l 484 424 z m 380 711 l 445 711 l 363 481 l 503 481 l 585 711 l 649 711 l 568 481 l 718 481 l 698 424 l 547 424 l 498 284 l 660 284 l 639 228 l 478 228 l 397 -1 l 332 -1 l 413 228 l 273 228 l 192 -1 l 128 -1 l 209 228 l 51 228 l 72 284 l 229 284 l 278 424 l 108 424 l 129 481 l 299 481 z"},",":{"x_min":0,"x_max":248,"ha":248,"o":"m -41 -163 q 11 -130 31 -102 q 52 -74 52 -41 q 52 -23 38 7 q 24 38 24 53 q 24 75 37 89 q 50 104 70 104 q 95 104 109 83 q 124 62 124 25 q 124 -34 87 -85 q 49 -136 -29 -182 z"},"n":{"x_min":0,"x_max":497,"ha":497,"o":"m 23 -9 l 90 319 q 90 321 91 324 q 94 340 94 349 q 94 352 92 353 q 90 354 87 354 q 79 354 66 339 q 52 325 36 298 l 20 307 q 65 370 100 403 q 135 436 157 436 q 167 436 172 430 q 177 424 177 412 q 177 406 176 397 q 174 387 172 376 l 140 221 q 226 332 284 384 q 341 436 378 436 q 397 436 409 420 q 421 404 421 379 q 421 363 417 342 q 414 321 405 291 l 355 108 q 348 93 344 80 q 341 66 341 53 q 341 48 345 44 q 350 40 354 40 q 366 40 387 62 q 409 83 441 128 l 456 117 q 406 48 373 20 q 340 -9 311 -9 q 292 -9 283 3 q 273 15 273 37 q 273 47 274 59 q 276 70 279 82 l 339 320 q 344 331 346 341 q 348 352 348 365 q 348 375 343 381 q 338 387 330 387 q 310 387 255 328 q 201 269 130 170 l 93 -9 z"},"h":{"x_min":0,"x_max":475,"ha":475,"o":"m -1 -9 l 122 598 q 123 601 124 608 q 127 621 127 628 q 127 630 125 632 q 124 633 120 633 q 112 633 98 618 q 84 603 68 577 l 53 586 q 98 649 133 683 q 168 716 190 716 q 200 716 204 710 q 209 704 209 692 q 209 687 208 677 q 207 667 204 655 l 116 221 q 202 332 260 384 q 317 436 354 436 q 373 436 385 420 q 397 404 397 379 q 397 365 393 345 q 390 325 380 291 l 331 108 q 325 87 323 74 q 320 61 320 53 q 320 48 323 44 q 326 40 330 40 q 342 40 363 62 q 385 83 417 128 l 431 117 q 382 49 349 21 q 316 -7 287 -7 q 268 -7 259 4 q 249 15 249 37 q 249 47 250 59 q 252 70 255 82 l 315 320 q 319 338 321 348 q 323 359 323 365 q 323 375 319 381 q 314 387 306 387 q 286 387 231 328 q 177 269 106 170 l 69 -9 z"},"z":{"x_min":0,"x_max":469,"ha":469,"o":"m 394 353 q 370 341 345 336 q 320 330 292 330 q 274 330 257 333 q 240 337 227 343 q 220 346 207 353 q 139 385 110 385 q 88 385 45 337 l 44 336 l 26 346 q 61 390 96 413 q 131 435 166 435 q 181 435 200 430 q 220 424 242 414 q 250 410 267 402 q 330 371 354 371 q 376 371 392 380 q 408 389 416 407 q 418 412 421 419 q 426 435 438 435 q 446 435 452 430 q 458 424 458 416 q 458 386 402 334 q 347 282 250 223 q 228 209 182 185 q 79 129 36 86 q 58 96 79 101 q 100 106 122 106 q 151 106 196 87 q 202 85 205 84 q 222 77 250 63 q 293 41 310 41 q 325 41 345 54 q 364 68 392 98 l 407 88 q 362 29 333 9 q 304 -12 273 -12 q 253 -12 230 -4 q 208 4 165 28 q 163 29 157 32 q 95 67 61 67 q 42 67 30 60 q 19 53 13 39 q 10 33 7 20 q 0 -10 -16 -10 q -24 -10 -30 -4 q -35 1 -35 11 q -35 39 8 88 q 52 136 122 182 q 171 214 270 267 q 369 319 394 353 z"},"B":{"x_min":0,"x_max":653,"ha":653,"o":"m 177 154 q 174 142 172 130 q 171 118 171 105 q 171 66 199 47 q 228 28 285 28 q 379 28 432 76 q 484 125 484 211 q 484 285 440 322 q 396 359 309 359 l 221 359 z m 228 392 l 313 392 q 364 392 392 398 q 420 403 442 416 q 473 433 490 465 q 508 497 508 534 q 508 591 468 615 q 427 640 330 640 l 280 640 z m -28 0 l -27 23 q 24 24 48 42 q 71 60 81 104 l 177 558 q 180 570 181 579 q 182 587 182 593 q 182 619 160 631 q 139 644 95 644 l 94 667 l 316 667 q 402 667 450 662 q 498 657 521 646 q 558 627 578 596 q 597 566 597 526 q 597 467 559 428 q 520 390 442 371 q 510 345 545 302 q 580 258 580 201 q 580 162 562 125 q 545 89 512 62 q 473 28 417 14 q 361 0 251 0 z"},"K":{"x_min":0,"x_max":697,"ha":697,"o":"m 169 109 q 166 94 165 84 q 163 74 163 69 q 163 47 185 35 q 208 23 249 23 l 249 0 l -28 0 l -27 23 q 24 24 47 42 q 70 59 80 104 l 177 558 q 179 567 180 576 q 181 585 181 593 q 181 619 160 631 q 138 644 95 644 l 94 667 l 371 667 l 371 644 q 318 642 297 625 q 275 609 265 563 l 218 342 l 546 570 l 546 570 q 579 593 579 612 q 579 626 567 635 q 555 643 532 644 l 532 667 l 771 667 l 770 644 q 689 632 555 538 q 536 525 526 518 l 323 378 l 561 97 q 564 93 570 86 q 623 22 674 22 q 676 22 680 22 q 685 23 687 23 l 684 0 l 528 0 l 250 328 l 210 301 z"},"R":{"x_min":0,"x_max":644,"ha":644,"o":"m 215 322 l 218 322 q 245 320 257 320 q 374 320 438 368 q 502 417 502 504 q 502 571 460 602 q 418 633 329 633 q 314 633 284 631 l 281 631 z m 381 299 q 443 122 487 70 q 531 18 599 18 l 610 18 l 611 -1 q 593 -3 579 -5 q 565 -6 553 -6 q 518 -6 489 2 q 459 11 434 28 q 387 60 324 218 q 306 265 295 290 l 208 293 l 169 109 q 167 98 165 89 q 164 80 164 74 q 164 48 185 35 q 206 23 249 23 l 250 0 l -28 0 l -27 23 q 24 24 48 42 q 71 60 81 104 l 177 558 q 180 570 181 579 q 182 587 182 593 q 182 619 160 631 q 139 644 95 644 l 94 667 q 142 666 222 666 q 408 664 448 655 q 520 636 557 596 q 594 556 594 498 q 594 422 538 369 q 481 316 381 299 z"},"T":{"x_min":0,"x_max":667,"ha":667,"o":"m 323 109 q 320 97 319 88 q 318 80 318 74 q 318 48 340 36 q 361 23 405 23 l 405 0 l 128 0 l 129 23 q 181 25 203 42 q 224 58 234 104 l 346 635 l 238 635 q 191 635 166 625 q 140 615 116 591 q 107 582 96 563 q 85 545 72 515 l 47 517 l 81 684 l 103 684 q 113 675 125 671 q 137 667 159 667 l 187 667 l 197 667 l 597 667 l 629 667 q 661 667 677 672 q 692 677 703 689 l 721 689 l 686 514 l 661 515 l 661 532 q 661 588 640 611 q 619 635 569 635 l 434 635 z"},"P":{"x_min":0,"x_max":622,"ha":622,"o":"m 169 109 q 166 94 165 84 q 163 74 163 69 q 163 47 185 35 q 208 23 249 23 l 250 0 l -28 0 l -27 23 q 24 24 48 42 q 71 60 81 104 l 177 558 q 180 570 181 579 q 182 587 182 593 q 182 619 160 631 q 139 644 95 644 l 94 667 q 142 666 223 666 q 409 664 448 655 q 518 637 556 591 q 594 544 594 478 q 594 432 572 390 q 550 349 508 316 q 470 287 425 272 q 379 258 322 258 q 304 258 288 259 q 271 260 256 262 l 259 285 q 269 284 278 283 q 287 282 297 282 q 388 282 444 342 q 501 401 501 495 q 501 566 459 601 q 417 635 328 635 q 320 635 310 635 q 300 634 279 633 z"},"|":{"x_min":0,"x_max":500,"ha":500,"o":"m 219 764 l 281 764 l 281 -236 l 219 -236 z"},"t":{"x_min":0,"x_max":244,"ha":244,"o":"m 97 108 q 94 93 92 80 q 90 67 90 60 q 90 51 93 45 q 96 40 101 40 q 113 40 134 62 q 156 83 188 128 l 202 117 q 153 49 120 21 q 87 -7 58 -7 q 38 -7 28 4 q 18 15 18 37 q 18 47 19 58 q 21 69 23 82 l 86 385 l 35 385 l 36 400 q 84 426 122 464 q 159 503 187 556 l 208 556 q 196 532 184 498 q 173 463 163 421 l 240 421 l 233 385 l 155 385 z"},"M":{"x_min":0,"x_max":904,"ha":904,"o":"m -41 0 l -41 21 q 3 29 28 53 q 53 78 67 127 l 180 528 q 185 547 188 561 q 190 574 190 584 q 190 612 172 625 q 155 638 100 646 l 102 667 l 294 667 l 393 102 l 761 667 l 927 667 l 925 646 q 872 635 853 616 q 833 598 821 540 l 737 133 q 732 110 730 95 q 727 79 727 75 q 727 46 746 34 q 765 22 813 21 l 811 0 l 536 0 l 537 21 q 590 21 614 42 q 637 62 655 150 l 743 579 l 365 0 l 327 0 l 227 580 l 103 146 q 98 128 95 113 q 92 97 92 88 q 92 60 111 43 q 130 26 168 21 l 169 0 z"},"g":{"x_min":0,"x_max":375,"ha":375,"o":"m 144 101 q 187 101 221 164 q 256 226 256 311 q 256 355 241 380 q 226 404 199 404 q 156 404 121 341 q 86 278 86 193 q 86 149 101 125 q 116 101 144 101 z m 73 -36 q 6 -64 -29 -94 q -65 -125 -65 -153 q -65 -183 -24 -205 q 17 -227 77 -227 q 145 -227 189 -211 q 234 -195 234 -173 q 234 -156 195 -128 q 185 -121 180 -117 z m 99 72 q 59 88 35 125 q 11 163 11 210 q 11 249 31 287 q 51 326 90 363 q 128 400 165 417 q 202 434 243 434 q 259 434 327 428 q 354 426 369 425 l 369 379 l 312 381 q 320 354 324 332 q 328 310 328 293 q 328 233 300 188 q 271 144 211 107 q 188 93 148 76 q 102 56 102 41 q 102 21 160 -19 l 168 -25 l 222 -64 q 264 -93 280 -112 q 296 -131 296 -151 q 296 -192 232 -221 q 167 -249 68 -249 q -16 -249 -72 -223 q -128 -197 -128 -161 q -128 -122 17 -41 q 43 -26 58 -18 q 52 -9 50 -1 q 47 6 47 12 q 47 25 58 39 q 70 52 99 72 z"},"j":{"x_min":0,"x_max":236,"ha":236,"o":"m 227 616 q 227 590 209 569 q 192 547 172 547 q 159 547 149 559 q 140 571 140 590 q 140 619 157 641 q 174 663 195 663 q 210 663 219 651 q 227 638 227 616 z m 100 28 q 73 -104 13 -172 q -47 -241 -134 -241 q -169 -241 -190 -228 q -211 -215 -211 -194 q -211 -180 -201 -171 q -192 -162 -178 -162 q -165 -162 -133 -181 q -102 -199 -82 -199 q -45 -199 -22 -158 q 1 -116 25 -1 l 90 319 q 90 321 91 324 q 94 340 94 349 q 94 352 92 353 q 90 354 87 354 q 79 354 66 339 q 52 325 36 298 l 20 307 q 65 370 100 403 q 135 436 157 436 q 167 436 172 430 q 177 424 177 412 q 177 405 176 396 q 174 387 172 376 z"},"i":{"x_min":0,"x_max":256,"ha":256,"o":"m 227 616 q 227 590 209 569 q 192 547 172 547 q 159 547 149 559 q 140 571 140 590 q 140 619 157 641 q 174 663 195 663 q 210 663 219 651 q 227 638 227 616 z m 117 108 q 112 87 110 74 q 108 60 108 53 q 108 49 112 44 q 115 40 119 40 q 131 40 152 62 q 174 83 206 128 l 217 117 q 168 49 135 21 q 103 -7 73 -7 q 54 -7 44 4 q 35 15 35 37 q 35 45 37 57 q 38 68 41 82 l 90 319 q 90 320 90 322 q 94 341 94 349 q 94 352 92 353 q 90 354 87 354 q 79 354 66 339 q 52 325 36 298 l 20 307 q 65 370 100 403 q 135 436 157 436 q 167 436 172 430 q 177 424 177 412 q 177 405 176 396 q 174 387 172 376 z"},"y":{"x_min":0,"x_max":406,"ha":406,"o":"m -50 -240 l -47 -220 l -36 -220 q 0 -220 21 -204 q 42 -188 59 -145 l 101 -43 q 103 -40 105 -33 q 129 20 129 71 q 129 126 120 192 q 110 258 93 321 q 85 350 76 365 q 67 381 59 381 q 49 381 33 366 q 18 351 -5 320 l -22 329 q 19 383 48 408 q 78 433 101 433 q 135 433 156 346 q 177 259 191 55 q 250 154 285 238 q 320 322 320 356 q 320 362 313 375 q 307 387 307 394 q 307 412 318 422 q 329 433 347 433 q 367 433 380 421 q 392 409 392 388 q 392 364 378 330 q 363 295 322 225 q 302 192 269 142 q 235 91 226 76 q 216 60 205 37 q 194 14 175 -35 l 133 -142 q 131 -146 127 -156 q 116 -184 116 -194 q 116 -207 127 -214 q 138 -221 158 -221 q 164 -221 167 -221 q 170 -221 173 -220 l 170 -240 z"},"@":{"x_min":0,"x_max":986,"ha":986,"o":"m 581 164 q 551 112 513 87 q 476 61 430 61 q 369 61 332 106 q 295 151 295 225 q 295 278 319 331 q 343 383 386 425 q 418 456 457 474 q 495 491 532 491 q 575 491 602 467 q 629 443 640 396 l 666 484 l 736 484 l 653 186 q 653 185 652 184 q 644 155 644 133 q 644 110 656 96 q 669 83 690 83 q 707 83 729 92 q 750 100 770 115 q 830 159 861 228 q 893 297 893 382 q 893 450 869 505 q 844 560 794 604 q 750 643 688 664 q 627 685 558 685 q 467 685 391 656 q 316 628 257 571 q 193 509 161 427 q 128 346 128 247 q 128 162 156 98 q 184 35 244 -16 q 300 -63 372 -88 q 443 -112 528 -112 q 607 -112 683 -86 q 758 -61 827 -11 l 842 -29 q 770 -83 689 -110 q 608 -137 522 -137 q 431 -137 355 -115 q 279 -92 221 -47 q 147 8 109 87 q 71 166 71 262 q 71 362 113 448 q 155 535 235 601 q 299 655 377 682 q 455 709 545 709 q 714 709 815 618 q 916 526 916 374 q 916 297 888 229 q 859 161 808 114 q 780 88 748 75 q 715 61 682 61 q 635 61 609 87 q 584 112 581 164 z m 536 471 q 510 471 488 456 q 466 441 443 407 q 408 354 387 293 q 366 231 366 183 q 366 138 386 111 q 406 85 439 85 q 471 85 500 107 q 530 128 557 172 q 585 218 602 271 q 618 324 618 367 q 618 413 595 442 q 572 471 536 471 z"},".":{"x_min":0,"x_max":248,"ha":248,"o":"m 125 54 q 125 29 109 11 q 92 -8 70 -8 q 52 -8 39 6 q 27 20 27 40 q 27 65 43 85 q 60 104 82 104 q 102 104 113 90 q 125 77 125 54 z"},"p":{"x_min":0,"x_max":461,"ha":461,"o":"m 106 42 q 125 29 141 22 q 158 16 174 16 q 237 16 285 94 q 333 171 333 280 q 333 322 321 349 q 309 375 291 375 q 276 375 246 346 q 215 318 144 234 z m 153 274 q 225 359 267 396 q 309 433 335 433 q 365 433 388 388 q 410 344 410 279 q 410 234 394 189 q 378 144 347 101 q 308 47 259 18 q 210 -12 162 -12 q 149 -12 133 -9 q 117 -6 97 0 l 70 -141 q 67 -155 66 -166 q 64 -177 64 -183 q 64 -200 83 -210 q 103 -220 137 -220 l 142 -220 l 143 -241 l -103 -241 l -104 -222 q -51 -216 -30 -199 q -9 -183 -1 -143 l 92 319 q 94 328 95 334 q 96 341 96 346 q 96 349 93 352 q 90 354 87 354 q 81 354 66 342 q 52 329 32 306 l 18 318 l 28 328 q 131 433 159 433 q 170 433 175 428 q 179 423 179 412 q 179 408 178 400 q 177 393 174 376 z"},"X":{"x_min":0,"x_max":676,"ha":676,"o":"m -84 0 l -83 21 q -42 26 -9 44 q 24 62 73 112 l 303 345 l 186 554 l 183 559 q 136 646 48 646 l 48 667 l 333 667 l 333 646 q 291 645 274 636 q 258 628 258 608 q 258 601 262 591 q 266 582 277 562 l 364 407 l 520 564 q 536 580 542 590 q 547 600 547 611 q 547 627 529 636 q 511 645 475 646 l 477 667 l 719 667 l 719 646 q 675 643 636 622 q 597 602 552 556 l 379 379 l 524 119 l 527 114 q 574 29 636 21 l 637 0 l 384 0 l 384 21 q 426 25 440 32 q 454 40 454 54 q 454 63 449 76 q 445 89 434 109 l 318 318 l 111 105 q 95 88 90 79 q 85 70 85 61 q 85 41 103 31 q 121 21 156 21 l 157 0 z"},"*":{"x_min":0,"x_max":500,"ha":500,"o":"m 275 366 l 138 244 l 117 259 l 197 428 l 31 518 l 41 544 l 227 522 l 261 704 l 292 704 l 324 522 l 507 546 l 514 515 l 353 428 l 432 262 l 408 244 z"},"Y":{"x_min":0,"x_max":604,"ha":604,"o":"m 291 109 q 289 100 288 91 q 287 82 287 74 q 287 48 308 36 q 330 23 373 23 l 374 0 l 97 0 l 97 23 q 149 25 171 42 q 193 58 203 104 l 239 272 l 118 544 q 117 547 114 552 q 80 630 27 646 l 27 667 l 246 667 l 246 646 q 217 644 203 634 q 189 625 189 607 q 189 594 200 567 q 201 565 202 563 l 316 305 l 527 547 q 543 566 551 580 q 558 593 558 605 q 558 620 542 631 q 525 642 495 646 l 495 667 l 671 667 l 671 646 q 630 624 585 570 l 584 569 l 326 269 z"},"c":{"x_min":0,"x_max":300,"ha":300,"o":"m 238 84 q 189 33 153 11 q 117 -11 83 -11 q 42 -11 18 21 q -7 54 -7 107 q -7 154 14 214 q 35 274 71 329 q 106 382 145 409 q 183 436 223 436 q 252 436 268 426 q 284 416 284 398 q 284 385 274 375 q 264 365 251 365 q 241 365 218 377 q 194 389 181 389 q 158 389 140 365 q 123 341 101 277 q 85 230 76 186 q 67 143 67 112 q 67 75 83 54 q 99 33 126 33 q 147 33 173 49 q 199 65 231 99 z"},"!":{"x_min":0,"x_max":312,"ha":312,"o":"m 147 54 q 147 30 130 11 q 113 -8 91 -8 q 73 -8 61 6 q 49 20 49 40 q 49 65 65 85 q 82 104 103 104 q 123 104 135 90 q 147 76 147 54 z m 113 181 l 182 667 l 272 667 l 137 181 z"},"/":{"x_min":0,"x_max":278,"ha":278,"o":"m -56 -93 l 255 681 l 302 681 l -9 -93 z"},"[":{"x_min":0,"x_max":356,"ha":356,"o":"m 62 -169 q 61 -176 60 -181 q 59 -187 59 -190 q 59 -203 67 -207 q 75 -212 110 -212 l 184 -212 l 180 -236 l -21 -236 l 164 667 l 361 667 l 354 643 l 283 643 q 248 643 237 634 q 226 625 220 596 z"},"6":{"x_min":0,"x_max":494,"ha":494,"o":"m 140 275 q 124 233 115 196 q 107 158 107 122 q 107 72 130 42 q 152 12 190 12 q 220 12 250 33 q 281 54 304 91 q 326 126 338 169 q 351 212 351 252 q 351 294 332 319 q 313 343 280 343 q 252 343 219 326 q 185 310 140 275 z m 501 655 q 388 628 300 543 q 212 458 152 317 q 200 351 239 367 q 278 384 309 384 q 366 384 400 343 q 434 302 434 234 q 434 182 412 135 q 389 89 345 49 q 312 20 271 3 q 229 -14 190 -14 q 123 -14 78 35 q 33 84 33 158 q 33 261 80 358 q 126 455 216 538 q 281 598 354 634 q 428 670 503 679 z"},"r":{"x_min":0,"x_max":308,"ha":308,"o":"m 99 117 q 154 268 205 353 q 256 438 292 438 q 309 438 318 428 q 328 418 328 401 q 328 381 315 368 q 301 355 281 355 q 278 355 274 355 q 269 356 267 356 q 225 356 174 253 q 124 150 94 -9 l 23 -9 l 90 319 q 90 321 91 324 q 94 340 94 349 q 94 352 92 353 q 90 354 87 354 q 79 354 66 339 q 52 325 36 298 l 20 307 q 65 370 100 403 q 135 436 157 436 q 167 436 172 430 q 177 423 177 409 q 177 401 176 392 q 174 384 172 376 z"},"2":{"x_min":0,"x_max":494,"ha":494,"o":"m -16 0 l -16 22 l 120 156 q 260 294 319 379 q 377 464 377 527 q 377 574 347 604 q 316 634 269 634 q 215 634 173 598 q 130 562 110 497 l 84 497 q 103 582 158 631 q 213 680 291 680 q 368 680 415 639 q 462 598 462 531 q 462 477 424 421 q 387 365 270 260 l 67 76 l 319 76 q 343 76 354 90 q 366 104 371 141 l 394 141 l 369 0 z"},"{":{"x_min":0,"x_max":500,"ha":500,"o":"m 413 740 l 413 715 q 344 714 318 688 q 293 662 293 586 l 293 516 q 293 406 263 365 q 233 325 153 310 q 233 295 263 255 q 293 214 293 104 l 293 34 q 293 -42 318 -68 q 343 -93 413 -94 l 413 -119 l 408 -119 q 302 -119 263 -83 q 223 -47 223 50 l 223 154 q 223 231 194 260 q 166 290 86 296 l 86 325 q 167 333 195 361 q 223 390 223 467 l 223 571 q 223 668 263 704 q 302 740 408 740 z"},"9":{"x_min":0,"x_max":494,"ha":494,"o":"m 367 394 q 384 434 392 470 q 400 507 400 541 q 400 594 378 623 q 355 653 316 653 q 286 653 256 633 q 227 613 203 575 q 181 540 168 497 q 156 454 156 412 q 156 370 174 347 q 193 324 227 324 q 258 324 293 342 q 328 359 367 394 z m 6 11 q 121 39 210 126 q 299 213 355 350 q 306 315 267 299 q 228 282 198 282 q 142 282 107 323 q 73 364 73 432 q 73 484 95 531 q 118 577 162 617 q 195 646 237 663 q 278 680 317 680 q 384 680 429 631 q 474 581 474 507 q 474 404 427 307 q 381 210 291 128 q 226 68 152 32 q 79 -4 4 -13 z"}," ":{"x_min":0,"x_max":247,"ha":247,"o":""},"I":{"x_min":0,"x_max":345,"ha":345,"o":"m 170 109 q 167 94 166 84 q 164 74 164 69 q 164 47 186 35 q 208 23 250 23 l 250 0 l -27 0 l -27 23 q 24 24 48 42 q 71 60 81 104 l 178 558 q 180 567 181 576 q 182 585 182 593 q 182 619 160 631 q 139 644 95 644 l 95 667 l 372 667 l 372 644 q 319 642 298 625 q 276 609 266 563 z"},"H":{"x_min":0,"x_max":812,"ha":812,"o":"m 643 558 q 646 575 648 583 q 649 592 649 597 q 649 619 626 632 q 604 644 563 644 l 562 667 l 839 667 l 839 644 q 788 643 764 625 q 741 607 731 563 l 635 109 q 632 97 631 88 q 630 80 630 74 q 630 48 652 36 q 673 23 717 23 l 717 0 l 440 0 l 441 23 q 493 25 515 42 q 536 58 546 104 l 594 327 l 216 327 l 169 109 q 166 95 165 85 q 163 75 163 69 q 163 47 185 35 q 208 23 249 23 l 250 0 l -28 0 l -27 23 q 24 24 48 42 q 71 60 81 104 l 177 558 q 180 570 181 579 q 182 587 182 593 q 182 619 160 631 q 139 644 95 644 l 94 667 l 372 667 l 371 644 q 319 642 297 625 q 276 609 266 563 l 221 355 l 600 355 z"},"4":{"x_min":0,"x_max":494,"ha":494,"o":"m 218 -15 l 262 203 l 13 203 l 13 246 l 408 681 l 435 681 l 351 265 l 451 265 l 438 203 l 338 203 l 294 -15 z m 73 265 l 275 265 l 279 281 q 292 346 311 417 q 329 489 351 569 z"},"~":{"x_min":0,"x_max":833,"ha":833,"o":"m 747 370 l 747 306 q 698 271 651 253 q 604 236 558 236 q 537 236 514 240 q 491 245 465 253 q 450 258 422 268 q 324 303 275 303 q 234 303 190 285 q 146 267 87 225 l 87 290 q 138 326 186 343 q 233 361 276 361 q 303 361 333 355 q 362 349 418 329 q 424 327 435 323 q 515 294 559 294 q 601 294 645 312 q 689 330 747 370 z"},"D":{"x_min":0,"x_max":796,"ha":796,"o":"m 325 637 l 283 637 l 174 128 q 171 117 170 107 q 169 97 169 88 q 169 54 196 41 q 223 27 291 27 q 378 27 440 49 q 502 71 553 120 q 603 168 631 235 q 658 302 658 377 q 658 503 572 570 q 486 637 325 637 z m -26 0 l -25 23 q 27 25 50 42 q 72 59 82 104 l 179 558 q 181 567 182 576 q 183 585 183 593 q 183 619 162 631 q 140 644 97 644 l 96 667 l 323 667 q 442 667 514 651 q 585 635 637 598 q 694 557 725 497 q 756 437 756 366 q 756 305 732 245 q 708 185 663 132 q 604 64 519 32 q 434 0 309 0 z"},"^":{"x_min":0,"x_max":1000,"ha":1000,"o":"m 456 714 l 543 714 l 797 438 l 752 438 l 499 651 l 245 438 l 201 438 z"},"0":{"x_min":0,"x_max":494,"ha":494,"o":"m 22 222 q 22 294 39 363 q 56 432 88 492 q 136 582 195 630 q 253 678 314 678 q 385 678 427 615 q 470 551 470 442 q 470 350 443 263 q 416 177 364 103 q 324 46 276 16 q 228 -15 179 -15 q 107 -15 65 49 q 22 113 22 222 z m 310 653 q 273 653 238 617 q 202 582 174 515 q 138 432 118 334 q 97 236 97 151 q 97 83 118 45 q 140 8 178 8 q 212 8 248 40 q 284 72 310 127 q 328 165 343 214 q 358 263 371 322 q 383 382 389 430 q 395 478 395 514 q 395 579 372 616 q 349 653 310 653 z"},"F":{"x_min":0,"x_max":595,"ha":595,"o":"m 169 109 q 166 94 165 84 q 163 74 163 69 q 163 47 185 35 q 208 23 249 23 l 250 0 l -28 0 l -27 23 q 24 24 48 42 q 71 60 81 104 l 177 558 q 180 570 181 579 q 182 587 182 593 q 182 619 160 631 q 139 644 95 644 l 94 667 l 597 667 l 570 519 l 549 522 l 549 534 q 549 590 519 615 q 489 639 421 639 l 281 639 l 221 356 l 376 356 q 437 356 461 372 q 485 387 504 427 l 525 425 l 486 239 l 465 239 l 465 252 q 465 295 444 311 q 422 327 352 327 l 215 327 z"},"`":{"x_min":0,"x_max":500,"ha":500,"o":"m 357 489 l 325 489 l 206 589 q 189 603 184 612 q 178 621 178 631 q 178 645 188 654 q 197 664 211 664 q 221 664 232 656 q 244 649 253 636 z"},"k":{"x_min":0,"x_max":476,"ha":476,"o":"m 69 -9 l 0 -9 l 122 598 q 123 601 124 608 q 127 621 127 628 q 127 630 125 632 q 124 633 120 633 q 112 633 98 618 q 84 603 68 577 l 53 586 q 98 649 133 683 q 168 716 190 716 q 200 716 204 710 q 209 704 209 692 q 209 687 208 677 q 207 667 204 655 l 127 275 q 216 351 277 392 q 337 433 358 433 q 385 433 404 411 q 422 388 422 354 q 422 290 363 252 q 303 214 191 207 q 210 184 241 144 q 316 47 347 47 q 356 47 368 56 q 380 64 406 91 l 419 79 l 326 -9 q 296 -4 274 9 q 252 22 225 57 q 212 73 189 105 q 143 173 111 200 z m 120 239 q 144 232 161 229 q 177 226 190 226 q 263 226 308 259 q 354 292 354 344 q 354 365 345 375 q 337 386 320 386 q 292 386 142 257 z"},"u":{"x_min":0,"x_max":493,"ha":493,"o":"m 422 421 l 358 103 q 357 100 356 93 q 353 79 353 72 q 353 69 355 68 q 356 67 360 67 q 368 67 382 82 q 396 97 412 123 l 427 114 q 382 51 347 18 q 312 -15 290 -15 q 280 -15 276 -9 q 271 -3 271 9 q 271 14 272 24 q 273 33 276 45 l 307 200 q 221 89 164 37 q 106 -15 69 -15 q 50 -15 38 1 q 26 17 26 42 q 26 55 30 73 q 33 92 43 130 l 92 311 q 95 322 96 330 q 98 338 98 342 q 98 349 96 352 q 94 354 87 354 q 77 354 60 339 q 42 323 18 292 l 3 302 q 57 367 96 402 q 136 436 158 436 q 169 436 174 429 q 179 422 179 406 q 179 396 177 379 q 174 362 169 343 l 108 101 q 104 82 102 72 q 100 62 100 56 q 100 46 105 40 q 109 34 118 34 q 138 34 192 93 q 247 152 318 251 l 352 421 z"},"]":{"x_min":0,"x_max":356,"ha":356,"o":"m 243 600 q 245 608 245 613 q 246 618 246 620 q 246 633 237 638 q 229 643 195 643 l 121 643 l 125 667 l 326 667 l 141 -237 l -56 -237 l -49 -213 l 22 -213 q 57 -213 68 -204 q 79 -195 85 -166 z"},"U":{"x_min":0,"x_max":808,"ha":808,"o":"m 89 646 l 92 667 l 361 667 l 359 646 q 308 638 285 618 q 263 598 252 541 l 198 272 q 191 236 188 213 q 184 189 184 176 q 184 102 238 59 q 292 16 384 16 q 438 16 484 33 q 530 50 563 81 q 592 108 610 148 q 627 187 643 269 l 689 519 q 692 537 694 551 q 696 564 696 574 q 696 604 675 621 q 654 637 603 646 l 605 667 l 821 667 l 820 646 q 739 615 716 493 l 716 491 l 674 263 q 658 172 634 126 q 610 79 567 45 q 529 15 476 -1 q 423 -16 357 -16 q 238 -16 169 39 q 100 93 100 186 q 100 209 104 237 q 107 264 119 317 l 163 525 q 167 544 169 560 q 171 575 171 583 q 171 612 156 625 q 140 638 89 646 z"},"o":{"x_min":0,"x_max":398,"ha":398,"o":"m 238 434 q 287 434 318 386 q 348 339 348 260 q 348 221 332 180 q 316 139 287 101 q 247 51 196 17 q 144 -16 111 -16 q 62 -16 32 31 q 2 79 2 158 q 2 199 18 240 q 33 281 63 318 q 103 368 154 401 q 205 434 238 434 z m 154 27 q 199 27 237 94 q 274 161 274 255 q 274 320 254 355 q 234 390 197 390 q 152 390 114 324 q 76 257 76 167 q 76 99 96 63 q 116 27 154 27 z"},"N":{"x_min":0,"x_max":819,"ha":819,"o":"m 108 137 q 104 121 102 106 q 100 92 100 84 q 100 54 121 39 q 141 24 187 21 l 185 0 l -19 0 l -18 21 q 24 31 44 54 q 65 77 77 135 l 169 573 q 171 583 173 592 q 174 600 174 603 q 174 621 152 632 q 131 642 87 646 l 86 667 l 238 667 l 622 114 l 708 530 q 713 551 715 566 q 718 581 718 586 q 718 614 697 628 q 676 643 631 646 l 633 667 l 837 667 l 836 646 q 795 636 775 613 q 754 589 742 531 l 630 0 l 603 0 l 199 567 z"},"+":{"x_min":0,"x_max":833,"ha":833,"o":"m 388 596 l 446 596 l 446 327 l 709 327 l 709 270 l 446 270 l 446 0 l 388 0 l 388 270 l 124 270 l 124 327 l 388 327 z"},"G":{"x_min":0,"x_max":818,"ha":818,"o":"m 694 21 q 627 3 558 -6 q 489 -15 420 -15 q 245 -15 141 71 q 38 157 38 301 q 38 376 71 445 q 104 513 168 567 q 234 624 315 653 q 396 683 486 683 q 550 683 613 671 q 675 659 739 634 l 743 485 l 721 486 q 699 567 638 613 q 577 658 489 658 q 410 658 344 627 q 279 596 225 532 q 182 481 158 416 q 135 351 135 284 q 135 158 209 85 q 284 12 413 12 q 461 12 497 21 q 532 31 552 49 q 570 65 583 102 q 596 138 596 174 q 596 193 577 204 q 559 216 524 218 l 528 241 l 762 241 l 761 215 l 757 215 q 722 215 705 200 q 688 185 678 143 l 670 105 q 669 103 669 100 q 664 78 664 68 q 664 58 672 51 q 680 45 693 45 z"},"q":{"x_min":0,"x_max":412,"ha":412,"o":"m 365 434 l 248 -141 q 245 -155 244 -165 q 242 -176 242 -182 q 242 -200 262 -210 q 281 -220 316 -220 l 321 -220 l 321 -241 l 74 -241 l 74 -222 q 127 -216 148 -200 q 168 -184 176 -143 l 232 129 q 216 114 188 86 q 91 -10 61 -10 q 34 -10 16 21 q -2 52 -2 101 q -2 159 21 212 q 44 265 90 312 q 150 375 216 404 q 282 433 365 434 z m 240 170 l 283 379 q 181 370 121 300 q 62 230 62 120 q 62 87 73 66 q 83 46 100 46 q 112 46 137 68 q 162 89 240 170 z"},"d":{"x_min":0,"x_max":448,"ha":448,"o":"m 305 379 q 289 392 273 398 q 256 405 240 405 q 175 405 127 328 q 78 250 78 141 q 78 99 90 73 q 102 46 119 46 q 134 46 170 80 q 206 115 267 187 z m 353 611 q 354 617 355 624 q 357 631 357 632 q 357 638 356 640 q 354 642 351 642 q 342 642 325 632 q 308 622 285 603 l 274 620 q 349 677 379 695 q 410 713 427 713 q 431 713 434 708 q 437 704 437 697 q 437 690 435 679 q 434 667 431 655 l 319 103 q 317 94 316 88 q 315 82 315 78 q 315 73 317 70 q 320 67 324 67 q 331 67 344 79 q 357 90 379 115 l 393 103 q 384 94 368 77 q 277 -15 252 -15 q 242 -15 237 -9 q 232 -3 232 9 q 232 13 233 21 q 234 28 237 45 l 258 147 q 189 65 146 28 q 103 -9 76 -9 q 47 -9 25 31 q 3 70 3 128 q 3 181 18 229 q 33 276 62 318 q 102 373 151 403 q 200 433 249 433 q 262 433 278 430 q 294 427 314 421 z"},"1":{"x_min":0,"x_max":494,"ha":494,"o":"m 83 0 l 87 20 l 133 20 q 159 20 170 32 q 182 45 191 91 l 290 579 q 253 546 208 519 q 162 492 106 470 l 112 500 q 182 532 240 577 q 298 621 347 680 l 386 680 l 265 84 l 264 80 q 260 56 260 52 q 260 34 273 27 q 286 20 324 20 l 340 20 l 335 0 z"},"5":{"x_min":0,"x_max":494,"ha":494,"o":"m 133 352 l 216 667 l 418 667 q 442 667 452 671 q 461 676 464 687 l 484 687 l 459 588 l 225 588 l 186 440 q 205 448 223 451 q 240 455 258 455 q 317 455 358 407 q 398 360 398 289 q 398 237 375 187 q 353 136 309 89 q 264 41 206 15 q 148 -11 86 -11 q 43 -11 21 1 q -1 13 -1 36 q -1 51 10 62 q 21 72 36 72 q 50 72 75 57 q 81 53 84 51 q 87 49 93 45 q 118 29 142 29 q 170 29 200 45 q 230 62 257 92 q 287 126 303 169 q 319 211 319 256 q 319 312 290 346 q 261 380 214 380 q 194 380 174 373 q 154 366 133 352 z"}}}
